<?xml version="1.0" encoding="UTF-8"?>
<svg id="Capa_1" xmlns="http://www.w3.org/2000/svg" version="1.1" viewBox="0 0 53.3 49.5">
  <!-- Generator: Adobe Illustrator 29.0.1, SVG Export Plug-In . SVG Version: 2.1.0 Build 192)  -->
  <defs>
    <style>
      .st0 {
        fill: #bf80ae;
      }

      .st1 {
        fill: #fff;
        stroke: #bf80ae;
        stroke-miterlimit: 10;
      }
    </style>
  </defs>
  <path class="st0" d="M35.3,33.4c-.5,7.7-6.2,14-13.8,15.2,3.5-1.1,5.9-4.4,6-8.1-.1-2.4-1.2-4.7-3-6.4-.2,2.3-2,6-4.9,4.3,1.2-1.8,1.9-3.9,1.9-6h0c0-2.1-.6-4-1.7-5.7-1.1-1.6-2.5-3-4.3-3.9.3.9.5,1.9.5,2.8,0,.1,0,.3,0,.4,0,2.9-1.2,5.7-3.4,7.7-1,.8-1.8,1.8-2.4,2.9-1,2.1-1.2,4.4-.4,6.6,1,2.5,3.1,4.5,5.7,5.3-6-.9-11.1-4.9-13.3-10.6-1.5-4-1.2-8.5.7-12.4,1.2-2.1,2.7-3.9,4.6-5.5,4-3.7,6.3-9,6.3-14.5,0-.2,0-.5,0-.7,0-.9-.1-1.9-.3-2.8-.1-.8-.3-1.5-.5-2.3.5.2,1,.4,1.4.7.5.3,1,.7,1.5,1.1,4,3.2,7,7.5,9.7,11.9-.5,1-.8,2-1,3-.2,1-.3,2-.3,3,0,6.6,4.6,12.3,11.1,13.7Z"/>
  <path class="st0" d="M52.2,19.8c0,7.7-6.3,14-14,14-1,0-2-.1-2.9-.3-6.5-1.4-11.1-7.1-11.1-13.7,0-1,.1-2,.3-3,.2-1,.6-2,1-3,3.3-7,11.7-10,18.6-6.7,4.9,2.3,8,7.2,8,12.7Z"/>
  <path class="st1" d="M39.6,21.8h-2.8c-.4,0-.8-.3-.9-.8l-.7-9.4c0-.5.3-.9.8-.9,0,0,0,0,0,0h4.2c.5,0,.9.3.9.8,0,0,0,0,0,0l-.7,9.4c0,.4-.4.8-.9.8Z"/>
  <rect class="st1" x="36.2" y="25.8" width="4" height="4" rx="1.5" ry="1.5"/>
</svg>